# xmcd
#
# Track frame offsets:
#	150
#	17610
#	35785
#	48413
#	62820
#	83085
#	95630
#	110593
#	126120
#	141695
#	161615
#	179065
#	192208
#	210054
#	229553
#	254375
#	278998
#	298815
#	313585
#	328753
#
# Disc length: 4583 seconds
#
# Revision: 1
# Processed by: cddbd v1.4PL0 Copyright (c) Steve Scherf et al.
# Submitted via: audiograbber 1.82.02
#
DISCID=2f11e514
DTITLE=Status Quo - The Ultimate Collection - CD2
DYEAR=2003
DGENRE=Rock
TTITLE0=Lies
TTITLE1=Rock 'n' Roll
TTITLE2=Something About You Baby I Like
TTITLE3=Dear John
TTITLE4=She Don't Fool Me
TTITLE5=Ol' Rag Blues
TTITLE6=A Mess Of The Blues
TTITLE7=Marguerita Time
TTITLE8=The Wanderer
TTITLE9=Rollin' Home
TTITLE10=In The Army Now
TTITLE11=Dreamin'
TTITLE12=Ain't Complaining
TTITLE13=Burning Bridges (On And Off And On Again)
TTITLE14=Anniversary Waltz Part 1
TTITLE15=Anniversary Waltz Part 2
TTITLE16=Can't Give You More
TTITLE17=Rock Til You Drop
TTITLE18=I Didn't Mean It
TTITLE19=Sherri Don't Fail Me Now !
EXTD=Ripped by DjMaxX!
EXTT0=
EXTT1=
EXTT2=
EXTT3=
EXTT4=
EXTT5=
EXTT6=
EXTT7=
EXTT8=
EXTT9=
EXTT10=
EXTT11=
EXTT12=
EXTT13=
EXTT14=
EXTT15=
EXTT16=
EXTT17=
EXTT18=
EXTT19=
PLAYORDER=
